<svg xmlns="http://www.w3.org/2000/svg" width="1024" height="1024" viewBox="0 0 1024 1024" version="1.1"><path d="M 722 726.331 C 722 741.448, 722.438 743, 726.700 743 C 729.578 743, 729.678 741.608, 726.890 740.364 C 724.886 739.470, 724.787 738.763, 724.937 726.336 C 725.070 715.350, 724.847 713.155, 723.548 712.657 C 722.195 712.138, 722 713.864, 722 726.331 M 445.345 714.543 C 445.019 715.392, 445.014 716.347, 445.333 716.667 C 446.342 717.676, 449 716.128, 449 714.531 C 449 712.535, 446.112 712.545, 445.345 714.543 M 588.500 714 C 587.684 715.320, 588.777 717, 590.452 717 C 591.915 717, 593.219 714.552, 592.264 713.598 C 591.332 712.665, 589.183 712.895, 588.500 714 M 268.500 715.677 C 265.220 716.546, 263 719.131, 263 722.084 C 263 725.759, 264.899 727.480, 271.237 729.548 C 274.131 730.492, 277.063 731.710, 277.750 732.255 C 279.506 733.645, 279.306 737.501, 277.396 739.086 C 275.291 740.833, 268.432 740.513, 265.399 738.526 C 263.136 737.043, 263 737.070, 263 739.002 C 263 741.513, 266.506 743, 272.430 743 C 278.024 743, 282 740.034, 282 735.862 C 282 730.941, 280.363 729.160, 274.226 727.400 C 267.567 725.491, 266 724.446, 266 721.913 C 266 718.426, 273.612 716.652, 278.151 719.081 C 280.691 720.440, 281.856 719.424, 279.940 717.523 C 278.344 715.938, 271.612 714.852, 268.500 715.677 M 416 729.500 L 416 743 423.050 743 C 434.396 743, 440 738.552, 440 729.546 C 440 719.706, 435.499 716, 423.550 716 L 416 716 416 729.500 M 649 717 C 649 717.550, 651.025 718, 653.500 718 L 658 718 658 730.500 C 658 740.828, 658.255 743, 659.469 743 C 660.666 743, 660.990 740.731, 661.219 730.750 L 661.500 718.500 666.250 718.195 C 668.862 718.028, 671 717.465, 671 716.945 C 671 716.409, 666.242 716, 660 716 C 653.333 716, 649 716.394, 649 717 M 331.421 719.250 C 331.477 720.853, 330.853 721.592, 329.250 721.820 C 326.464 722.215, 326.260 724, 329 724 C 330.801 724, 331.001 724.672, 331.015 730.750 C 331.035 739.937, 332.438 742.500, 337.446 742.500 C 339.877 742.500, 341.507 741.979, 341.797 741.109 C 342.140 740.081, 341.636 739.874, 339.872 740.317 C 335.649 741.377, 334.576 739.730, 334.163 731.550 L 333.781 724 337.391 724 C 341.883 724, 342.172 722.240, 337.750 721.813 C 335.259 721.573, 334.425 720.975, 334.180 719.250 C 334.005 718.013, 333.294 717, 332.601 717 C 331.908 717, 331.377 718.013, 331.421 719.250 M 574.421 719.250 C 574.475 720.805, 573.960 721.457, 572.750 721.361 C 571.788 721.285, 571 721.847, 571 722.611 C 571 723.375, 571.841 724, 572.868 724 C 574.528 724, 574.754 724.918, 574.896 732.250 C 575.020 738.644, 575.430 740.781, 576.719 741.750 C 578.699 743.238, 585 743.428, 585 742 C 585 741.450, 583.987 740.993, 582.750 740.985 C 578.958 740.959, 578.318 739.782, 577.726 731.750 L 577.154 724 580.577 724 C 582.460 724, 584 723.550, 584 723 C 584 722.450, 582.425 722, 580.500 722 C 577.433 722, 577 721.690, 577 719.500 C 577 718.087, 576.422 717, 575.671 717 C 574.935 717, 574.377 718.005, 574.421 719.250 M 419 728.810 C 419 741.326, 418.889 741.187, 427.825 739.911 C 433.655 739.080, 436.163 736.359, 436.752 730.226 C 437.176 725.821, 436.906 724.926, 434.262 721.967 C 431.643 719.036, 430.581 718.597, 425.149 718.204 L 419 717.760 419 728.810 M 285.027 721.177 C 285.042 721.355, 287.027 726.442, 289.439 732.481 C 294.155 744.294, 294.155 746.061, 289.438 748.210 C 288.097 748.821, 287 749.699, 287 750.161 C 287 751.705, 291.671 751.022, 293.229 749.250 C 295.940 746.166, 305.692 722.358, 304.664 721.331 C 303.447 720.114, 301.963 722.497, 298.927 730.541 C 297.161 735.220, 295.455 738.789, 295.137 738.470 C 294.818 738.152, 293.184 734.207, 291.504 729.704 C 289.498 724.325, 287.859 721.404, 286.725 721.186 C 285.776 721.003, 285.012 720.999, 285.027 721.177 M 312.315 722.007 C 311.114 722.491, 309.605 723.869, 308.962 725.070 C 307.081 728.586, 309.141 731.702, 314.206 732.999 C 320.884 734.709, 321 734.785, 321 737.450 C 321 740.612, 317.331 741.744, 312.194 740.168 C 307.997 738.879, 306.676 739.558, 309.443 741.582 C 312.308 743.677, 320.308 743.422, 322.345 741.171 C 324.354 738.952, 324.504 734.664, 322.629 733.107 C 321.874 732.481, 318.949 731.283, 316.129 730.446 C 310.889 728.890, 309.798 727.242, 312.514 724.988 C 313.512 724.160, 315.557 723.942, 318.514 724.347 C 323.463 725.025, 324.407 723.962, 320.453 722.161 C 317.501 720.815, 315.373 720.775, 312.315 722.007 M 351.485 722.038 C 347.643 723.181, 345 727.642, 345 732.981 C 345 738.955, 349.131 743, 355.232 743 C 359.409 743, 364.184 740.850, 362.887 739.554 C 362.552 739.218, 361.012 739.425, 359.465 740.013 C 355.792 741.410, 351.384 740.386, 349.501 737.698 C 346.627 733.595, 347.450 733, 356 733 L 364 733 364 730.056 C 364 726.520, 360.467 722.256, 357 721.608 C 355.625 721.351, 353.143 721.544, 351.485 722.038 M 369.833 721.750 C 369.741 722.163, 369.628 727.111, 369.583 732.746 C 369.522 740.319, 369.826 742.993, 370.750 742.996 C 371.639 742.999, 372 740.835, 372 735.500 C 372 727.221, 373.776 724, 378.339 724 C 381.592 724, 383 727.641, 383 736.047 C 383 740.016, 383.429 743, 384 743 C 384.575 743, 385 739.908, 385 735.723 C 385 727.220, 386.609 724, 390.857 724 C 395.219 724, 396 725.625, 396 734.700 C 396 741.411, 396.287 743, 397.500 743 C 398.707 743, 399 741.452, 399 735.065 C 399 725.100, 398.021 722.383, 394.119 721.526 C 391.207 720.887, 387.207 722.216, 385.868 724.268 C 385.510 724.816, 384.318 724.318, 383.118 723.118 C 380.448 720.448, 377.988 720.435, 374.635 723.073 L 372 725.145 372 723.073 C 372 721.153, 370.210 720.060, 369.833 721.750 M 446 731.917 C 446 741.211, 446.248 743, 447.534 743 C 448.834 743, 449.024 741.376, 448.784 732.331 C 448.586 724.896, 448.121 721.537, 447.250 721.248 C 446.300 720.933, 446 723.495, 446 731.917 M 459.323 721.696 C 458.125 721.929, 456.586 722.794, 455.903 723.617 C 454.816 724.926, 455.308 725.028, 459.824 724.429 C 465.695 723.650, 468 724.833, 468 728.622 C 468 730.794, 467.586 731, 463.223 731 C 457.233 731, 454 733.103, 454 737 C 454 742.019, 460.877 744.742, 466.268 741.857 C 467.871 740.999, 468.500 740.999, 468.786 741.857 C 468.995 742.485, 469.871 743, 470.732 743 C 472.073 743, 472.214 741.818, 471.714 734.750 C 471.010 724.793, 470.600 723.595, 467.398 722.135 C 464.895 720.995, 463.355 720.911, 459.323 721.696 M 481.775 722.559 C 478.172 724.514, 477 726.925, 477 732.378 C 477 738.707, 480.278 742.455, 485.814 742.455 C 488.353 742.455, 490.609 741.759, 491.920 740.572 C 493.978 738.710, 494 738.719, 494 741.390 C 494 744.222, 490.055 749.033, 487.795 748.956 C 487.083 748.932, 484.700 748.264, 482.500 747.471 C 477.599 745.705, 478 745.701, 478 747.525 C 478 751.108, 489.215 752.266, 493.139 749.088 C 495.301 747.338, 495.553 746.182, 496.129 735.355 C 496.816 722.443, 496.460 719.651, 494.472 722.369 C 493.382 723.860, 492.987 723.874, 490.383 722.516 C 486.826 720.661, 485.258 720.669, 481.775 722.559 M 508.635 723.073 C 506.451 724.791, 506 724.876, 506 723.573 C 506 722.708, 505.325 722, 504.500 722 C 503.262 722, 503 723.833, 503 732.500 C 503 741.167, 503.262 743, 504.500 743 C 505.700 743, 506 741.500, 506 735.500 C 506 726.926, 507.772 724, 512.965 724 C 516.988 724, 518 726.299, 518 735.434 C 518 741.493, 518.299 743, 519.500 743 C 520.716 743, 521 741.384, 521 734.455 C 521 726.715, 520.769 725.678, 518.545 723.455 C 515.546 720.455, 512.130 720.323, 508.635 723.073 M 530.898 723.289 C 526.426 726.301, 524.991 732.072, 527.435 737.223 C 530.296 743.251, 538.538 745.022, 543.573 740.691 C 545.636 738.917, 546.369 737.215, 546.742 733.337 C 547.328 727.230, 546.158 724.777, 541.633 722.630 C 537.027 720.445, 534.929 720.573, 530.898 723.289 M 554.168 722.595 C 552.376 723.850, 551.956 724.969, 552.195 727.845 C 552.487 731.345, 552.743 731.577, 558.250 733.320 C 563.157 734.873, 564 735.494, 564 737.551 C 564 740.561, 560.406 741.686, 555.855 740.099 C 552.062 738.777, 550.728 739.597, 553.443 741.582 C 556.271 743.650, 563.322 743.406, 565.345 741.171 C 569.252 736.854, 566.522 732.034, 559.319 730.534 C 555.037 729.642, 553.309 727.537, 555.094 725.386 C 556.125 724.145, 557.536 723.903, 561.217 724.339 C 566.419 724.955, 567.695 723.595, 563.435 721.975 C 559.743 720.572, 556.773 720.770, 554.168 722.595 M 604.388 721.980 C 597.669 724.695, 595.720 734.874, 600.923 740.077 C 604.225 743.379, 610.137 744.083, 613.557 741.582 C 616.158 739.680, 614.938 738.693, 611.569 739.974 C 605.972 742.102, 601 738.544, 601 732.412 C 601 725.875, 607.364 721.984, 613.066 725.035 C 614.594 725.853, 615 725.743, 615 724.510 C 615 721.728, 608.719 720.230, 604.388 721.980 M 623.242 722.034 C 622 722.533, 620.466 724.078, 619.833 725.467 C 618.297 728.839, 620.815 731.673, 626.654 733.143 C 631.521 734.369, 633.319 736.006, 632.407 738.382 C 631.540 740.640, 627.655 741.424, 623.868 740.104 C 619.226 738.485, 618.187 738.806, 620.861 741.033 C 623.930 743.590, 631.071 743.715, 633.204 741.250 C 637.295 736.521, 634.917 731.793, 627.786 730.476 C 623.053 729.603, 621.234 727.627, 623.097 725.383 C 624.154 724.109, 625.616 723.884, 629.970 724.320 L 635.500 724.875 633.139 722.938 C 630.632 720.880, 626.951 720.544, 623.242 722.034 M 676.763 722.565 C 671.847 725.232, 669.595 732.384, 672.117 737.316 C 675.835 744.585, 686.853 745.052, 690.452 738.093 C 693.687 731.836, 691.462 724.054, 685.881 722.108 C 681.761 720.672, 680.098 720.756, 676.763 722.565 M 701.763 722.565 C 698.435 724.371, 696 728.802, 696 733.050 C 696 735.299, 696.973 737.173, 699.400 739.600 C 708.740 748.940, 721.726 738.039, 715.530 726.059 C 714.133 723.356, 709.616 720.952, 706.101 721.040 C 705.220 721.062, 703.268 721.748, 701.763 722.565 M 589 732.500 C 589 741.167, 589.262 743, 590.500 743 C 591.738 743, 592 741.167, 592 732.500 C 592 723.833, 591.738 722, 590.500 722 C 589.262 722, 589 723.833, 589 732.500 M 350 726 C 346.161 729.839, 347.322 731, 355 731 C 358.850 731, 362 730.611, 362 730.135 C 362 729.659, 361.067 728.084, 359.927 726.635 C 357.392 723.411, 352.878 723.122, 350 726 M 482 726 C 479.557 728.443, 479.325 734.592, 481.557 737.777 C 483.592 740.683, 489.198 740.802, 492 738 C 495.083 734.917, 494.268 727.214, 490.600 724.765 C 488.500 723.363, 483.989 724.011, 482 726 M 530.977 726.750 C 529.302 728.875, 528.927 730.384, 529.328 733.388 C 529.996 738.396, 532.078 740.400, 536.615 740.400 C 541.222 740.400, 544 737.270, 544 732.078 C 544 724.410, 535.548 720.952, 530.977 726.750 M 675.977 726.750 C 674.302 728.875, 673.927 730.384, 674.328 733.388 C 674.948 738.037, 676.456 739.741, 680.697 740.589 C 687.489 741.948, 692.153 731.153, 687 726 C 683.973 722.973, 678.670 723.334, 675.977 726.750 M 701.733 725.750 C 697.826 730.085, 698.840 737.695, 703.615 739.870 C 707.086 741.452, 708.351 741.298, 711.365 738.927 C 714.773 736.247, 715.086 729.543, 711.961 726.189 C 709.447 723.491, 703.980 723.256, 701.733 725.750 M 458.040 734.452 C 454.951 738.174, 460.575 742.426, 465.574 740.148 C 467.363 739.333, 468 738.249, 468 736.021 C 468 733.120, 467.827 733, 463.622 733 C 461.016 733, 458.757 733.587, 458.040 734.452" stroke="none" fill="#060809" fill-rule="evenodd"/><path d="M 442.655 710.829 C 441.745 711.835, 441 713.635, 441 714.829 C 441 717.536, 440.638 717.532, 436.921 714.784 C 434.417 712.932, 432.290 712.502, 423.981 712.168 C 414.201 711.775, 414.023 711.809, 413.112 714.207 C 411.817 717.610, 411.676 744.682, 412.948 745.468 C 413.504 745.812, 418.131 746.163, 423.230 746.248 C 431.261 746.382, 433.035 746.094, 436.500 744.094 C 438.700 742.824, 440.159 742.137, 439.742 742.567 C 439.325 742.997, 440.137 744.106, 441.547 745.031 C 444.182 746.759, 450.648 746.749, 452.385 745.015 C 452.897 744.502, 454.209 744.746, 455.503 745.594 C 457.190 746.699, 459.860 746.944, 466.415 746.593 C 474.217 746.175, 475.041 746.298, 474.570 747.814 C 473.839 750.164, 474.856 751.271, 479.711 753.412 C 486.878 756.572, 496.181 754.189, 498.773 748.531 C 499.413 747.133, 500.810 746.495, 503.587 746.333 C 505.739 746.207, 508.819 745.921, 510.430 745.698 C 512.042 745.475, 514.791 745.614, 516.538 746.009 C 518.470 746.444, 521.296 746.191, 523.745 745.363 C 527.214 744.190, 528.171 744.209, 530.637 745.494 C 534.462 747.489, 538.624 747.354, 543.652 745.071 C 547.382 743.377, 548.088 743.333, 550.607 744.640 C 555.220 747.033, 561.387 747.452, 565.055 745.622 C 569.106 743.602, 571.290 743.581, 575.057 745.529 C 578.711 747.419, 594.833 746.888, 596.101 744.836 C 596.725 743.827, 597.878 743.919, 601.694 745.287 C 607.459 747.354, 609.533 747.416, 614.624 745.674 C 617.825 744.579, 618.935 744.577, 621 745.659 C 625.819 748.187, 632.990 747.010, 636.960 743.040 C 639.370 740.630, 639.764 733.427, 637.644 730.528 C 636.532 729.007, 636.518 728.230, 637.565 726.211 C 639.675 722.146, 637.999 719.694, 631.997 718.067 C 627.277 716.787, 626.215 716.809, 622.083 718.277 C 617.994 719.729, 616.992 719.756, 613.477 718.504 C 608.049 716.571, 607.040 716.645, 601.650 719.374 C 596.348 722.058, 595.517 721.561, 595.851 715.904 C 596.245 709.229, 590.261 706.648, 585.479 711.430 C 583.315 713.594, 582.447 713.798, 577.552 713.293 C 572.372 712.759, 572 712.870, 571.104 715.227 C 569.890 718.420, 567.948 719.138, 563.807 717.922 C 559.507 716.660, 553.771 717.633, 551.157 720.068 C 548.664 722.391, 547.641 722.478, 546.006 720.507 C 542.424 716.192, 531.164 716.745, 526.440 721.469 C 524.161 723.748, 524.082 723.757, 522.805 721.860 C 521.073 719.286, 513.970 716.913, 510.655 717.801 C 509.219 718.185, 502.747 718.211, 496.272 717.857 C 483.606 717.165, 480.044 717.890, 476.282 721.928 L 474.280 724.076 472.643 721.577 C 470.385 718.132, 464.036 716.502, 458.403 717.920 C 452.724 719.350, 453 719.466, 453 715.655 C 453 709.772, 446.399 706.692, 442.655 710.829 M 718.667 709.667 C 718.300 710.033, 718 712.561, 718 715.283 C 718 719.956, 717.874 720.194, 715.750 719.539 C 706.835 716.788, 701.533 717.219, 696.606 721.096 L 693.980 723.161 690.821 720.503 C 688.006 718.134, 686.976 717.880, 681.373 718.172 L 675.085 718.500 674.793 715.500 L 674.500 712.500 660.728 712.222 C 647.240 711.949, 646.939 711.990, 646.124 714.194 C 645.666 715.431, 645.593 717.581, 645.962 718.972 C 646.501 721.006, 647.346 721.560, 650.285 721.809 L 653.938 722.117 654.219 733.786 C 654.498 745.358, 654.522 745.463, 657.110 746.371 C 658.545 746.875, 660.907 746.989, 662.360 746.625 L 665 745.962 665 734.481 C 665 727.494, 665.391 723, 666 723 C 666.550 723, 667 723.536, 667 724.191 C 667 724.846, 667.661 724.509, 668.468 723.441 C 670.348 720.955, 670.370 722.728, 668.500 726 C 665.506 731.237, 667.427 739.831, 672.480 743.806 C 677.808 747.997, 686.798 747.632, 691.743 743.025 L 693.914 741.002 697.558 743.475 C 702.774 747.015, 707.023 747.552, 712.948 745.422 C 716.875 744.009, 718.421 743.867, 720.218 744.751 C 725.904 747.550, 731.587 747.268, 732.234 744.155 C 732.868 741.100, 731.817 738.186, 729.901 737.684 C 728.147 737.226, 728 736.101, 728 723.094 L 728 709 723.667 709 C 721.283 709, 719.033 709.300, 718.667 709.667 M 263.277 713.973 C 259.617 716.204, 258.499 719.325, 259.414 724.753 C 260.274 729.854, 260.276 730.656, 259.445 737.245 L 258.721 742.989 263.507 745.106 C 268.257 747.207, 274.717 747.349, 280.691 745.482 C 282.714 744.850, 282.906 745.169, 283.191 749.649 L 283.500 754.500 287.433 754.821 C 292.618 755.245, 295.623 753.499, 298.678 748.287 C 301.482 743.502, 303.379 743.007, 309.346 745.500 C 313.904 747.404, 318.705 747.402, 322.364 745.494 C 323.940 744.672, 326.026 744, 327 744 C 327.974 744, 330.060 744.672, 331.636 745.494 C 335.109 747.305, 339.471 747.352, 343.500 745.621 C 345.963 744.562, 347.076 744.570, 349.718 745.666 C 353.909 747.404, 357.223 747.352, 361.709 745.477 C 363.749 744.625, 365.606 744.352, 365.927 744.859 C 366.780 746.204, 388.217 746.008, 389.913 744.640 C 390.981 743.778, 391.428 743.805, 391.746 744.750 C 392.398 746.688, 401.633 746.400, 402.393 744.418 C 403.590 741.299, 403.004 726.944, 401.536 723.432 C 399.571 718.729, 394.315 716.423, 388.771 717.830 C 386.623 718.375, 383.658 718.482, 382.182 718.066 C 378.027 716.896, 366.640 718.009, 365.669 719.681 C 365.017 720.804, 364.530 720.855, 363.401 719.918 C 361.061 717.976, 353.841 717.025, 349.982 718.151 C 345.333 719.507, 339.806 718.086, 338.513 715.202 C 337.718 713.429, 336.691 713, 333.238 713 C 329.541 713, 328.814 713.358, 327.962 715.600 C 326.991 718.155, 326.852 718.188, 320.091 717.509 C 315.710 717.069, 312.468 717.214, 311.170 717.909 C 309.759 718.664, 308.311 718.688, 306.470 717.989 C 304.615 717.283, 302.639 717.328, 299.945 718.135 C 294.591 719.739, 286.065 717.974, 282.644 714.553 C 280.406 712.316, 279.251 712, 273.295 712.004 C 268.305 712.006, 265.644 712.529, 263.277 713.973 M 722 726.300 C 722 736.089, 722.379 740.979, 723.200 741.800 C 724.925 743.525, 729 743.314, 729 741.500 C 729 740.667, 728.111 740, 727 740 C 725.095 740, 725 739.333, 725 726 C 725 714.222, 724.762 712, 723.500 712 C 722.237 712, 722 714.256, 722 726.300 M 445 715.073 C 445 716.504, 445.539 717.043, 446.739 716.812 C 449.345 716.310, 449.636 713, 447.073 713 C 445.642 713, 445 713.642, 445 715.073 M 588.446 714.087 C 587.501 715.616, 589.552 717.386, 591.433 716.664 C 592.295 716.333, 593 715.374, 593 714.531 C 593 712.784, 589.465 712.439, 588.446 714.087 M 268 715.657 C 263.404 717.508, 261.755 721.805, 264.017 726.032 C 264.577 727.077, 267.241 728.588, 269.939 729.389 C 272.636 730.190, 275.778 731.346, 276.921 731.958 C 279.213 733.184, 279.691 736.909, 277.800 738.800 C 276.115 740.485, 267.868 740.296, 265.324 738.514 C 263.514 737.246, 263.124 737.236, 262.661 738.441 C 261.855 740.540, 264.442 742.183, 269.441 742.746 C 277.987 743.710, 282 741.251, 282 735.051 C 282 730.452, 281.204 729.726, 272.945 726.782 C 267.380 724.798, 266.500 724.148, 266.500 722.016 C 266.500 718.597, 270.603 717.214, 276.263 718.725 C 281.087 720.012, 282.064 719.636, 279.794 717.365 C 278.135 715.707, 270.589 714.614, 268 715.657 M 416 729.500 L 416 743 423.050 743 C 434.502 743, 440 738.724, 440 729.815 C 440 719.693, 435.603 716, 423.550 716 L 416 716 416 729.500 M 649.259 717.250 C 649.508 717.981, 651.409 718.500, 653.843 718.500 L 658.003 718.500 658.001 730.750 C 658 740.973, 658.248 743, 659.500 743 C 660.750 743, 661 741, 661 731 L 661 719 666 719 C 669.778 719, 671 718.633, 671 717.500 C 671 716.257, 669.102 716, 659.917 716 C 651.490 716, 648.935 716.300, 649.259 717.250 M 331 719.500 C 331 721.333, 330.467 722, 329 722 C 327.900 722, 327 722.450, 327 723 C 327 723.550, 327.900 724, 329 724 C 330.817 724, 331 724.667, 331 731.277 C 331 740.528, 332.595 743.245, 337.768 742.805 C 342.643 742.390, 343.337 740, 338.583 740 L 335 740 335 733 C 335 729.150, 334.887 725.663, 334.750 725.250 C 334.613 724.837, 335.962 724.359, 337.750 724.187 C 339.884 723.981, 341 723.341, 341 722.323 C 341 721.170, 340.232 720.886, 338 721.213 C 335.400 721.595, 335 721.343, 335 719.327 C 335 717.667, 334.427 717, 333 717 C 331.533 717, 331 717.667, 331 719.500 M 574.275 718.945 C 574.644 720.354, 574.216 720.973, 572.720 721.195 C 570.033 721.592, 569.221 724, 571.774 724 C 573.488 724, 573.779 724.938, 574.265 732.037 C 574.568 736.457, 575.362 740.732, 576.030 741.537 C 577.564 743.384, 585.355 743.575, 584.756 741.750 C 584.531 741.063, 582.918 740.359, 581.173 740.187 L 578 739.873 578 731.937 L 578 724 581.083 724 C 585.106 724, 584.461 721.524, 580.417 721.439 C 578.026 721.388, 577.543 720.983, 577.738 719.189 C 577.916 717.555, 577.443 717, 575.872 717 C 574.279 717, 573.891 717.473, 574.275 718.945 M 420.250 718.632 C 419.364 719.011, 419 722.202, 419 729.583 L 419 740 424.854 740 C 429.657 740, 431.176 739.567, 433.314 737.585 C 437.912 733.324, 438.119 725.297, 433.735 721.264 C 431.519 719.227, 422.827 717.530, 420.250 718.632 M 285.300 722.250 C 290.015 733.706, 293.050 742.642, 292.806 744.347 C 292.638 745.521, 291.262 747.073, 289.750 747.795 C 286.350 749.420, 286.190 751, 289.427 751 C 292.896 751, 295.146 747.614, 300.398 734.490 C 305.378 722.045, 305.638 720.998, 303.750 721.004 C 303.063 721.006, 300.997 724.832, 299.161 729.507 C 297.324 734.183, 295.446 737.776, 294.987 737.492 C 294.528 737.208, 293.383 734.619, 292.441 731.738 C 289.974 724.189, 288.170 721, 286.367 721 C 285.495 721, 285.017 721.560, 285.300 722.250 M 310.635 723.073 C 307.770 725.326, 307.167 729.063, 309.371 730.893 C 310.126 731.519, 313.051 732.717, 315.871 733.554 C 319.741 734.703, 321 735.550, 321 737.004 C 321 739.963, 317.653 741.275, 313.235 740.049 C 308.399 738.705, 308 738.731, 308 740.383 C 308 742.004, 311.023 742.967, 316.168 742.986 C 321.197 743.005, 322.990 742.156, 324.103 739.229 C 325.583 735.337, 322.985 732.342, 316.494 730.455 C 311.031 728.867, 309.908 727.492, 312.200 725.200 C 313.674 723.726, 318.454 723.637, 321.066 725.035 C 322.578 725.845, 323 725.743, 323 724.570 C 323 720.809, 314.778 719.813, 310.635 723.073 M 350.110 722.396 C 346.784 724.239, 345.077 727.747, 345.035 732.827 C 345.007 736.303, 345.575 737.729, 347.923 740.077 C 350.367 742.521, 351.658 743, 355.801 743 C 359.020 743, 361.198 742.466, 362.020 741.476 C 363.819 739.308, 362.919 738.907, 358.803 740.044 C 354.555 741.217, 350.624 740.034, 349.061 737.114 C 347.064 733.382, 347.736 733, 356.299 733 L 364.598 733 364.189 729.496 C 363.418 722.885, 355.988 719.138, 350.110 722.396 M 369 732 C 369 741.111, 369.258 743, 370.500 743 C 371.700 743, 372 741.500, 372 735.500 C 372 727.474, 373.775 724, 377.878 724 C 381.035 724, 381.983 726.353, 382.247 734.848 C 382.464 741.849, 382.747 743, 384.250 743 C 385.770 743, 386 741.956, 386 735.071 C 386 726.476, 387.201 724, 391.371 724 C 395.187 724, 396 725.881, 396 734.700 C 396 741.411, 396.287 743, 397.500 743 C 398.722 743, 399 741.333, 399 734 C 399 726.333, 398.704 724.704, 397 723 C 394.432 720.432, 389.977 720.441, 387.209 723.020 L 385.040 725.040 383.020 723.020 C 380.399 720.399, 377.208 720.456, 374.314 723.174 L 372 725.349 372 723.174 C 372 721.908, 371.373 721, 370.500 721 C 369.258 721, 369 722.889, 369 732 M 446 732 C 446 741.111, 446.258 743, 447.500 743 C 448.742 743, 449 741.111, 449 732 C 449 722.889, 448.742 721, 447.500 721 C 446.258 721, 446 722.889, 446 732 M 457.750 722.162 C 453.222 723.816, 454.536 725.130, 459.993 724.406 C 465.630 723.659, 468 724.869, 468 728.496 C 468 730.492, 467.478 730.757, 463.376 730.839 C 457.413 730.959, 454 733.154, 454 736.868 C 454 738.420, 454.823 740.435, 455.829 741.345 C 457.943 743.258, 463.170 743.515, 466.268 741.857 C 467.871 740.999, 468.500 740.999, 468.786 741.857 C 468.995 742.485, 469.804 743, 470.583 743 C 472.325 743, 472.588 730.986, 470.950 726.287 C 469.304 721.563, 463.961 719.894, 457.750 722.162 M 483 721.709 C 477.802 723.621, 475.045 730.778, 477.366 736.333 C 479.884 742.360, 486.182 744.842, 490.559 741.532 C 493.453 739.343, 494.295 739.687, 493.528 742.744 C 492.383 747.308, 491.046 748.205, 486.058 747.761 C 483.551 747.538, 480.712 747.002, 479.750 746.570 C 478.478 746, 478 746.232, 478 747.418 C 478 749.498, 481.937 751, 487.391 751 C 490.676 751, 492.206 750.410, 494.076 748.422 C 496.301 746.056, 496.528 744.899, 496.839 734.311 C 497.068 726.522, 496.804 722.408, 496.027 721.639 C 495.164 720.785, 494.626 720.943, 493.879 722.266 C 492.976 723.867, 492.681 723.890, 490.719 722.516 C 488.535 720.986, 485.757 720.696, 483 721.709 M 503 732.031 C 503 741.115, 503.258 743, 504.500 743 C 505.700 743, 506 741.500, 506 735.500 C 506 727.263, 507.784 723.985, 512.250 724.015 C 516.736 724.046, 517.480 725.433, 517.853 734.463 C 518.120 740.938, 518.543 743, 519.603 743 C 520.695 743, 521 741.050, 521 734.073 C 521 725.619, 520.860 725.035, 518.365 723.073 C 516.916 721.933, 514.727 721, 513.500 721 C 512.273 721, 510.084 721.933, 508.635 723.073 C 506.596 724.676, 506 724.813, 506 723.680 C 506 722.873, 505.325 721.955, 504.500 721.638 C 503.223 721.148, 503 722.692, 503 732.031 M 533 721.706 C 528.083 723.504, 525.022 729.967, 526.430 735.579 C 528.310 743.068, 538.491 745.663, 544.077 740.077 C 546.468 737.686, 547 736.309, 547 732.511 C 547 729.958, 546.537 727.003, 545.970 725.945 C 543.995 722.253, 537.400 720.098, 533 721.706 M 554.168 722.595 C 552.377 723.849, 551.956 724.970, 552.195 727.839 C 552.486 731.315, 552.771 731.579, 558.250 733.423 C 562.976 735.014, 564 735.760, 564 737.612 C 564 740.457, 561.637 741.207, 556.500 739.993 C 550.788 738.643, 550.195 738.813, 552.861 741.033 C 555.980 743.632, 563.048 743.710, 565.345 741.171 C 566.660 739.719, 567.796 733.090, 566.750 732.972 C 566.612 732.956, 564.025 732.123, 561 731.120 C 556.370 729.584, 555.500 728.916, 555.500 726.898 C 555.500 724.654, 555.838 724.509, 560.750 724.638 C 566.376 724.785, 567.609 723.562, 563.435 721.975 C 559.743 720.572, 556.773 720.770, 554.168 722.595 M 589 732 C 589 741.111, 589.258 743, 590.500 743 C 591.742 743, 592 741.111, 592 732 C 592 722.889, 591.742 721, 590.500 721 C 589.258 721, 589 722.889, 589 732 M 602.826 722.656 C 599.459 724.816, 598 727.980, 598 733.124 C 598 741.064, 606.749 745.645, 614 741.500 C 616.889 739.849, 616.368 739.676, 609.366 739.961 C 605.007 740.138, 603.988 739.822, 602.616 737.862 C 598.785 732.392, 602.270 724, 608.373 724 C 610.148 724, 612.140 724.540, 612.800 725.200 C 613.633 726.033, 614.319 726.081, 615.042 725.358 C 618.126 722.274, 607.192 719.856, 602.826 722.656 M 624 721.659 C 616.212 724.785, 617.990 731.241, 627.254 733.476 C 630.819 734.336, 631.550 734.935, 631.813 737.215 C 632.070 739.442, 631.646 740.051, 629.458 740.600 C 627.798 741.017, 625.520 740.665, 623.432 739.669 C 621.044 738.530, 619.876 738.391, 619.385 739.186 C 617.233 742.667, 630.298 744.620, 633.193 741.250 C 637.559 736.167, 636.038 732.734, 628.440 730.526 C 623.654 729.134, 622.917 728.598, 623.187 726.704 C 623.423 725.038, 624.282 724.424, 626.704 724.190 C 628.466 724.020, 630.801 724.358, 631.893 724.943 C 634.148 726.150, 635.937 724.537, 634.234 722.834 C 633.026 721.626, 626.072 720.828, 624 721.659 M 677.388 721.980 C 671.735 724.264, 669.388 731.983, 672.510 738.020 C 674.437 741.745, 676.830 743, 682.011 743 C 688.067 743, 692 738.870, 692 732.511 C 692 726.835, 690.827 724.479, 687.020 722.510 C 683.806 720.848, 680.623 720.673, 677.388 721.980 M 702.256 721.978 C 701.022 722.502, 699.111 724.409, 698.010 726.215 C 693.192 734.118, 697.815 742.902, 706.827 742.968 C 710.300 742.994, 711.731 742.423, 714.077 740.077 C 717.904 736.250, 718.214 729.030, 714.739 724.688 C 712.252 721.580, 706.257 720.278, 702.256 721.978 M 350.039 726.189 C 346.460 730.030, 347.359 731, 354.500 731 C 360.151 731, 361 730.759, 361 729.155 C 361 724.344, 353.618 722.346, 350.039 726.189 M 482.174 726.314 C 477.546 731.241, 480.512 740, 486.809 740 C 490.843 740, 492.845 738.071, 493.555 733.497 C 494.770 725.674, 487.240 720.922, 482.174 726.314 M 531.455 726.455 C 528.642 729.267, 528.331 732.806, 530.526 737.050 C 532.001 739.902, 533.556 740.488, 538.500 740.055 C 543.677 739.601, 545.955 730.476, 541.961 726.189 C 539.191 723.215, 534.577 723.332, 531.455 726.455 M 676.455 726.455 C 671.301 731.608, 675.265 741, 682.593 741 C 685.645 741, 689 736.311, 689 732.045 C 689 724.505, 681.670 721.239, 676.455 726.455 M 702.825 725.038 C 700.739 726.255, 698.652 732.329, 699.453 734.852 C 700.270 737.425, 702.948 739.600, 706.271 740.390 C 708.430 740.903, 709.590 740.501, 711.521 738.570 C 718.079 732.012, 710.659 720.467, 702.825 725.038 M 458.040 734.452 C 454.951 738.174, 460.575 742.426, 465.574 740.148 C 467.363 739.333, 468 738.249, 468 736.021 C 468 733.120, 467.827 733, 463.622 733 C 461.016 733, 458.757 733.587, 458.040 734.452" stroke="none" fill="#f5f4f3" fill-rule="evenodd"/><path d="M 318.500 168.407 C 293.423 172.615, 270.657 182.674, 253.177 197.268 C 234.969 212.472, 212.598 243.478, 198.929 272.456 C 192.308 286.491, 183.723 312.577, 180.553 328.291 C 176.226 349.734, 173.707 376.083, 175.856 377.411 C 176.851 378.026, 187.360 367.198, 201.232 351.267 C 217.358 332.747, 231.656 321.858, 249.610 314.426 C 262.547 309.071, 273.696 306.741, 287 306.612 C 297.370 306.511, 298.905 306.732, 302.617 308.859 C 307.600 311.715, 310 316.301, 310 322.969 C 310 329.061, 308.976 331.818, 305.056 336.283 C 300.772 341.163, 298.108 341.583, 291.446 338.431 C 283.787 334.808, 282.887 335.393, 283.101 343.856 C 283.196 347.646, 282.961 351.254, 282.578 351.873 C 281.526 353.576, 277.014 353.189, 272.141 350.978 C 268.248 349.212, 261 348.236, 261 349.479 C 261 349.742, 261.970 352.913, 263.155 356.524 C 266.026 365.269, 265.356 365.917, 255.764 363.673 C 243.052 360.700, 241.550 361.621, 245.557 369.927 C 248.165 375.333, 248.633 378.491, 246.976 379.515 C 246.413 379.863, 242.603 379.153, 238.508 377.938 C 231.494 375.855, 230.918 375.824, 228.532 377.387 C 225.656 379.271, 225.472 380.452, 227.500 384 C 229.244 387.050, 229.406 390.631, 227.843 391.597 C 227.207 391.990, 222.370 392.354, 217.093 392.406 L 207.500 392.500 207.800 397.250 C 208.094 401.903, 208.041 402, 205.172 402 C 199.274 402, 190.504 396.652, 181.084 387.311 C 175.067 381.344, 174.261 382.502, 176.195 394.336 C 180.863 422.897, 196.778 434.076, 228.580 431.129 C 234.263 430.603, 239.340 429.908, 239.862 429.586 C 240.385 429.262, 240.575 426.407, 240.286 423.221 C 239.598 415.630, 240.789 414.603, 250.351 414.544 L 257.500 414.500 257.805 408.500 C 257.973 405.200, 258.559 402.050, 259.108 401.500 C 259.657 400.950, 263.570 400.500, 267.803 400.500 L 275.500 400.500 275.500 394.714 C 275.500 387.716, 276.299 387.036, 284.550 387.015 C 287.877 387.007, 291.081 386.519, 291.669 385.931 C 292.257 385.343, 292.553 382.980, 292.326 380.681 C 292.099 378.381, 292.323 375.896, 292.823 375.157 C 293.324 374.418, 296.455 373.493, 299.781 373.100 C 307.088 372.239, 309.312 370.696, 308.510 367.045 C 308.192 365.596, 308.610 362.784, 309.440 360.797 C 311.104 356.816, 311.260 356.739, 330.440 350.404 C 344.389 345.796, 358.197 344.667, 365.728 347.518 C 376.717 351.677, 380.588 357.542, 379.781 368.811 C 379.284 375.757, 377.267 381.062, 371.295 391.132 L 368.548 395.764 372.274 400.546 C 375.074 404.140, 376 406.267, 376 409.107 C 376 414.768, 373.496 416.101, 364.318 415.325 C 355.643 414.592, 355.478 414.904, 360 423.500 C 365.239 433.460, 364.138 435.530, 354.413 434.009 C 350.611 433.414, 346.801 432.717, 345.948 432.459 C 345.094 432.201, 343.629 432.555, 342.693 433.245 C 341.118 434.407, 341.218 434.979, 344.041 440.935 C 347.811 448.891, 347.675 451.528, 343.500 451.429 C 339.828 451.342, 333.094 450.176, 331.859 449.413 C 331.360 449.104, 329.568 449.156, 327.878 449.527 C 324.371 450.297, 324.380 450.763, 328.071 460.293 C 329.561 464.142, 329.980 466.420, 329.318 467.082 C 328.655 467.745, 325.241 467.669, 319.143 466.857 C 313.092 466.052, 309.628 465.972, 308.976 466.624 C 308.324 467.276, 308.849 470.083, 310.519 474.861 C 311.912 478.847, 312.768 482.567, 312.422 483.127 C 312.015 483.785, 308.292 483.897, 301.896 483.444 L 292 482.742 292 485.193 C 292 486.541, 292.729 489.784, 293.621 492.401 C 294.858 496.031, 294.965 497.436, 294.073 498.329 C 293.390 499.014, 288.771 499.643, 282.952 499.844 C 271.323 500.245, 270.805 500.898, 277.470 506.764 C 288.829 516.764, 312.242 518.401, 351 511.907 C 400.409 503.628, 464.448 475.359, 506 443.484 C 510.125 440.320, 513.950 437.394, 514.500 436.983 C 515.050 436.571, 519.100 437.332, 523.500 438.674 C 527.900 440.015, 536.900 442.617, 543.500 444.455 C 550.100 446.293, 574.850 453.208, 598.500 459.821 C 644.326 472.636, 670.896 479.950, 693.500 485.971 C 725.424 494.474, 732.368 496.391, 750.500 501.701 C 777.922 509.731, 779.567 510.085, 789.602 510.109 C 819.430 510.182, 846.044 490.673, 854.555 462.500 C 857.299 453.414, 857.101 437.643, 854.122 428.025 C 849.836 414.193, 842.788 403.206, 832.753 394.715 C 824.970 388.130, 822.087 386.561, 791.257 372.130 C 747.526 351.660, 742.751 349.367, 707 331.676 C 676.594 316.631, 656.939 306.580, 631.481 293.062 C 606.993 280.059, 568.190 255.112, 525 224.604 C 509.014 213.312, 493.035 203.066, 483 197.674 C 457.666 184.060, 423.744 174.470, 383.030 169.412 C 365.635 167.251, 328.807 166.678, 318.500 168.407 M 250.630 206.123 C 249.575 206.750, 249.189 207.509, 249.746 207.867 C 250.288 208.215, 251.753 210.525, 253.003 213 C 256.198 219.331, 258.890 223.150, 280.843 252.500 C 314.312 297.244, 324.892 310.653, 328.948 313.464 C 332.088 315.640, 334.342 316.281, 340.188 316.663 C 350.254 317.319, 356.795 319.325, 363.447 323.797 C 366.558 325.889, 378.418 336.826, 389.802 348.103 C 418.132 376.166, 428.077 382.896, 459.500 395.265 C 479.383 403.092, 513.965 413.533, 577.500 430.891 C 583.550 432.544, 601.550 437.477, 617.500 441.854 C 633.450 446.231, 652.350 451.416, 659.500 453.376 C 706.183 466.178, 731.220 472.427, 733.192 471.769 C 735.639 470.954, 711.346 462.490, 621 432.683 C 523.146 400.399, 503.883 394.120, 487 389.003 C 466.448 382.774, 463.392 381.689, 454.315 377.399 C 435.623 368.566, 423.777 359.549, 398.121 334.629 C 387.436 324.250, 375.982 314.006, 372.669 311.864 C 365.106 306.976, 356.149 304.177, 345.438 303.354 L 337.107 302.713 329.303 292.708 C 325.012 287.205, 314.300 273.605, 305.500 262.486 C 296.700 251.367, 283.893 235.177, 277.040 226.510 C 270.187 217.842, 262.987 209.709, 261.040 208.436 C 256.543 205.496, 253.008 204.711, 250.630 206.123 M 427.500 222.039 C 413.970 224.136, 398.679 235.140, 392.782 247.023 C 387.158 258.354, 385.893 268.110, 388.469 280.270 C 391.589 294.994, 399.903 305.150, 423.247 322.754 C 440.307 335.619, 463.787 351.287, 471.676 355.070 C 484.890 361.406, 491.650 362.419, 521 362.462 C 546.789 362.499, 547.627 362.437, 552.243 360.164 C 557.303 357.672, 559.989 354.578, 561.847 349.101 C 562.604 346.868, 563 336.503, 563 318.890 C 563 292.443, 562.970 292.050, 560.770 290 C 559.543 288.858, 548.181 280.932, 535.520 272.387 C 522.859 263.843, 509.575 254.777, 506 252.240 C 478.704 232.874, 467.484 226.302, 456.768 223.404 C 449.917 221.551, 435.105 220.861, 427.500 222.039 M 431.302 243.048 C 424.647 245.676, 417.164 252.410, 413.988 258.629 C 411.945 262.628, 411.502 264.933, 411.513 271.505 C 411.523 278.217, 411.975 280.429, 414.311 285.204 C 419.373 295.550, 426.125 300.910, 463.399 324.173 C 492.553 342.369, 488.970 341.156, 514.881 341.595 C 532.453 341.893, 537.006 341.697, 537.910 340.608 C 538.606 339.770, 538.873 336.625, 538.610 332.376 C 538.375 328.594, 538.142 318.191, 538.091 309.257 L 538 293.013 503.250 269.857 C 484.137 257.121, 466.025 245.564, 463 244.174 C 455.213 240.596, 438.973 240.019, 431.302 243.048 M 478 591.949 L 478 608.898 474.250 607.253 C 471.719 606.143, 467.737 605.615, 462 605.628 C 446.913 605.661, 436.838 611.490, 430.852 623.648 C 427.880 629.686, 427.623 630.985, 427.643 639.856 C 427.661 647.514, 428.141 650.724, 429.976 655.441 C 433.046 663.336, 439.691 669.972, 447.559 673 C 455.816 676.179, 467.533 676.240, 474.465 673.142 C 477.196 671.921, 479.724 670.447, 480.083 669.866 C 480.442 669.285, 481.029 669.978, 481.387 671.405 C 482.029 673.965, 482.163 674, 491.313 674 L 500.587 674 500.395 667.750 C 500.289 664.313, 500.157 642.038, 500.101 618.250 L 500 575 489 575 L 478 575 478 591.949 M 275 627.500 L 275 674 285.893 674 C 294.904 674, 296.891 673.727, 297.393 672.418 C 297.727 671.548, 298 664.101, 298 655.868 L 298 640.900 303.671 641.200 L 309.343 641.500 320.921 657.744 L 332.500 673.987 345.750 673.994 C 353.118 673.997, 359 673.593, 359 673.083 C 359 672.579, 358.626 672.017, 358.168 671.833 C 357.228 671.456, 332.326 640.384, 330.951 637.872 C 330.245 636.581, 331.179 635.501, 335.454 632.662 C 353.842 620.453, 353.060 595.083, 334 585.456 C 326.536 581.687, 321.133 581.024, 297.750 581.012 L 275 581 275 627.500 M 516 627.500 L 516 674 527.493 674 L 538.986 674 538.743 653 C 538.609 641.450, 538.812 632, 539.193 632 C 539.575 632, 540.484 632.852, 541.213 633.894 C 541.943 634.936, 549.895 644.386, 558.884 654.894 L 575.227 674 589.672 674 C 600.971 674, 603.951 673.728, 603.351 672.750 C 602.929 672.063, 596.490 664.744, 589.042 656.486 C 573.045 638.750, 563.618 627.968, 562.634 626.284 C 562.198 625.536, 568.403 617.233, 578.712 604.767 C 587.945 593.602, 596.118 583.687, 596.872 582.734 C 598.161 581.106, 597.411 581, 584.663 581 L 571.080 581 555.290 601.974 C 546.606 613.509, 539.170 622.959, 538.766 622.974 C 538.362 622.988, 538.249 613.550, 538.513 602 L 538.994 581 527.497 581 L 516 581 516 627.500 M 297.418 597.354 C 297.073 598.252, 297.051 602.477, 297.369 606.744 C 297.687 611.010, 297.959 617.087, 297.974 620.250 L 298 626 305.750 625.998 C 318.063 625.996, 323.879 621.799, 324.695 612.324 C 325.211 606.336, 322.841 601.342, 318.214 598.671 C 313.542 595.974, 298.317 595.010, 297.418 597.354 M 380.132 606.078 C 370.092 608.051, 361.991 614.461, 357.637 623.878 C 355.846 627.752, 355.500 630.362, 355.500 640 C 355.500 650.558, 355.721 651.918, 358.195 656.608 C 361.712 663.275, 369.658 670.329, 376.798 673.125 C 381.635 675.018, 384.397 675.353, 395 675.331 C 405.407 675.310, 408.441 674.942, 413.117 673.131 C 418.618 671.001, 418.747 670.860, 419.367 666.338 C 419.715 663.799, 420 660.161, 420 658.253 C 420 655.328, 419.726 654.905, 418.250 655.546 C 406.279 660.742, 393.577 661.611, 386.020 657.750 C 381.245 655.310, 378.463 652.069, 377.437 647.750 L 376.783 645 399.533 645 L 422.282 645 421.745 636.750 C 421.069 626.349, 418.175 618.532, 413.256 613.819 C 408.344 609.113, 404.909 607.495, 396.918 606.127 C 389.489 604.855, 386.399 604.846, 380.132 606.078 M 626.871 605.957 C 616.176 607.904, 607.680 613.820, 603.242 622.410 C 601.045 626.663, 600.547 629.144, 600.213 637.500 C 599.873 646.044, 600.141 648.366, 602.054 653.449 C 607.795 668.704, 624.337 677.376, 644.420 675.660 C 651.758 675.033, 661.573 672.553, 663.750 670.776 C 665.293 669.516, 665.493 656, 663.968 656 C 663.401 656, 660.139 656.946, 656.718 658.102 C 648.181 660.988, 634.202 660.524, 628.784 657.175 C 625.713 655.278, 621 648.319, 621 645.684 C 621 645.308, 631.410 645, 644.134 645 L 667.267 645 666.779 635.250 C 666.197 623.623, 663.845 617.735, 657.671 612.450 C 651.080 606.809, 637.693 603.987, 626.871 605.957 M 668.300 608.250 C 669.135 610.283, 687.584 652.426, 693.715 666.307 L 699.373 679.115 696.230 685.307 C 694.502 688.713, 691.681 693.862, 689.961 696.750 L 686.835 702 699.284 702 L 711.732 702 714.733 695.250 C 716.383 691.538, 721.221 679.275, 725.484 668 C 740.252 628.942, 743.102 621.466, 745.975 614.250 L 748.863 607 737.155 607 L 725.447 607 720.121 622.750 C 717.191 631.413, 713.646 641.794, 712.242 645.821 L 709.690 653.142 703.214 635.821 C 699.653 626.294, 695.785 615.913, 694.620 612.750 L 692.501 607 680.143 607 C 670.650 607, 667.905 607.290, 668.300 608.250 M 383.216 620.505 C 380.959 621.486, 379.325 623.270, 377.988 626.216 C 374.793 633.257, 374.522 633.092, 388.750 632.780 C 401.141 632.508, 401.509 632.436, 401.822 630.234 C 401.999 628.988, 401.199 626.440, 400.045 624.572 C 396.785 619.298, 389.851 617.622, 383.216 620.505 M 628.207 620.450 C 625.896 621.495, 624.315 623.294, 622.905 626.481 C 621.800 628.979, 621.171 631.468, 621.507 632.012 C 622.254 633.219, 646.662 633.356, 647.403 632.156 C 648.362 630.605, 646.031 624.378, 643.656 622.147 C 640.585 619.262, 632.740 618.400, 628.207 620.450 M 459.396 621.367 C 449.472 625.886, 447.068 645.659, 455.346 654.673 C 458.936 658.582, 465.042 660.442, 470.848 659.395 C 478.276 658.056, 478 658.803, 478 640 C 478 620.551, 478.402 621.360, 468.296 620.466 C 464.439 620.125, 461.462 620.426, 459.396 621.367 M 334.310 731.500 C 334.315 734.800, 334.502 736.029, 334.725 734.232 C 334.947 732.435, 334.943 729.735, 334.715 728.232 C 334.486 726.729, 334.304 728.200, 334.310 731.500 M 385.343 735.500 C 385.346 739.900, 385.522 741.576, 385.733 739.224 C 385.945 736.872, 385.942 733.272, 385.727 731.224 C 385.512 729.176, 385.339 731.100, 385.343 735.500 M 496.349 736 C 496.349 740.675, 496.522 742.587, 496.732 740.250 C 496.943 737.913, 496.943 734.087, 496.732 731.750 C 496.522 729.413, 496.349 731.325, 496.349 736" stroke="none" fill="#d91223" fill-rule="evenodd"/></svg>